<?xml version="1.0" encoding="UTF-8"?>
<svg width="196px" height="37px" viewBox="0 0 196 37" version="1.1" xmlns="http://www.w3.org/2000/svg" xmlns:xlink="http://www.w3.org/1999/xlink">
    <!-- Generator: Sketch 50.2 (55047) - http://www.bohemiancoding.com/sketch -->
    <title>Group 14</title>
    <desc>Created with Sketch.</desc>
    <defs></defs>
    <g id="Page-1" stroke="none" stroke-width="1" fill="none" fill-rule="evenodd">
        <g id="Apache-Web-Layout" transform="translate(-74.000000, -65.000000)" fill="#000000">
            <g id="Group-14" transform="translate(74.000000, 65.220000)">
                <path d="M45.4272,17.6394 L54.2982,17.6394 C54.9762,17.6394 55.6712,17.5424 56.3822,17.3484 C57.0932,17.1554 57.7472,16.8394 58.3452,16.4034 C58.9432,15.9674 59.4272,15.3854 59.8002,14.6584 C60.1712,13.9314 60.3572,13.0184 60.3572,11.9194 C60.3572,10.7884 60.1952,9.8514 59.8722,9.1084 C59.5492,8.3654 59.1132,7.7754 58.5632,7.3384 C58.0132,6.9024 57.3842,6.6034 56.6732,6.4414 C55.9622,6.2804 55.2022,6.1994 54.3952,6.1994 L45.4272,6.1994 L45.4272,17.6394 Z M39.3672,1.2554 L54.6372,1.2554 C57.0932,1.2554 59.0962,1.6114 60.6482,2.3214 C62.1992,3.0324 63.3942,3.9214 64.2352,4.9874 C65.0752,6.0544 65.6482,7.2174 65.9562,8.4774 C66.2622,9.7384 66.4162,10.9014 66.4162,11.9674 C66.4162,13.0344 66.2622,14.1904 65.9562,15.4334 C65.6482,16.6784 65.0752,17.8334 64.2352,18.8994 C63.3942,19.9664 62.1992,20.8474 60.6482,21.5414 C59.0962,22.2374 57.0932,22.5844 54.6372,22.5844 L45.4272,22.5844 L45.4272,35.8664 L39.3672,35.8664 L39.3672,1.2554 Z" id="Fill-4"></path>
                <path d="M75.8076,22.0988 L86.3746,22.0988 L81.1876,7.2168 L81.0426,7.2168 L75.8076,22.0988 Z M77.9406,1.2548 L84.3876,1.2548 L97.7176,35.8658 L91.2226,35.8658 L87.9746,26.7038 L74.1596,26.7038 L70.9116,35.8658 L64.6586,35.8658 L77.9406,1.2548 Z" id="Fill-6"></path>
                <path d="M124.3384,12.2584 C124.0794,11.2574 123.7244,10.3364 123.2724,9.4954 C122.8184,8.6554 122.2374,7.9284 121.5264,7.3144 C120.8154,6.7004 119.9834,6.2234 119.0304,5.8834 C118.0774,5.5444 116.9704,5.3754 115.7104,5.3754 C113.8674,5.3754 112.2754,5.7464 110.9354,6.4904 C109.5934,7.2334 108.5034,8.2274 107.6634,9.4714 C106.8224,10.7154 106.2004,12.1294 105.7964,13.7124 C105.3924,15.2964 105.1914,16.9124 105.1914,18.5604 C105.1914,20.2084 105.3924,21.8244 105.7964,23.4074 C106.2004,24.9914 106.8224,26.4054 107.6634,27.6494 C108.5034,28.8934 109.5934,29.8874 110.9354,30.6304 C112.2754,31.3744 113.8674,31.7454 115.7104,31.7454 C117.0674,31.7454 118.2624,31.5114 119.2964,31.0424 C120.3314,30.5744 121.2194,29.9274 121.9634,29.1034 C122.7064,28.2794 123.2884,27.3184 123.7084,26.2194 C124.1284,25.1204 124.4024,23.9404 124.5324,22.6804 L130.4454,22.6804 C130.3174,24.7484 129.8724,26.6394 129.1134,28.3524 C128.3534,30.0654 127.3274,31.5434 126.0344,32.7874 C124.7414,34.0314 123.2234,34.9924 121.4784,35.6714 C119.7334,36.3504 117.8104,36.6894 115.7104,36.6894 C113.1244,36.6894 110.8054,36.2124 108.7544,35.2594 C106.7014,34.3064 104.9644,33.0054 103.5434,31.3574 C102.1204,29.7094 101.0294,27.7864 100.2704,25.5884 C99.5114,23.3914 99.1314,21.0484 99.1314,18.5604 C99.1314,16.1044 99.5114,13.7774 100.2704,11.5794 C101.0294,9.3824 102.1204,7.4594 103.5434,5.8114 C104.9644,4.1634 106.7014,2.8544 108.7544,1.8844 C110.8054,0.9154 113.1244,0.4304 115.7104,0.4304 C117.6494,0.4304 119.4744,0.6974 121.1874,1.2304 C122.9004,1.7634 124.4114,2.5394 125.7194,3.5574 C127.0284,4.5754 128.0874,5.8114 128.8954,7.2654 C129.7024,8.7194 130.2034,10.3844 130.3974,12.2584 L124.3384,12.2584 Z" id="Fill-8"></path>
                <polygon id="Fill-10" points="136.5015 1.2548 142.5615 1.2548 142.5615 15.0218 158.3155 15.0218 158.3155 1.2548 164.3745 1.2548 164.3745 35.8658 158.3155 35.8658 158.3155 20.2568 142.5615 20.2568 142.5615 35.8658 136.5015 35.8658"></polygon>
                <polygon id="Fill-12" points="170.4302 1.2548 195.3462 1.2548 195.3462 6.4898 176.4902 6.4898 176.4902 15.5548 193.9402 15.5548 193.9402 20.4988 176.4902 20.4988 176.4902 30.6298 195.6852 30.6298 195.6852 35.8658 170.4302 35.8658"></polygon>
                <path d="M11.4014,22.0992 L21.9684,22.0992 L16.7824,7.2172 L16.6364,7.2172 L11.4014,22.0992 Z M13.5344,1.2552 L19.9814,1.2552 L33.3124,35.8662 L26.8164,35.8662 L23.5684,26.7042 L9.7534,26.7042 L6.5054,35.8662 L0.2524,35.8662 L13.5344,1.2552 Z" id="Fill-3"></path>
            </g>
        </g>
    </g>
</svg>